<?xml version="1.0" encoding="UTF-8" standalone="no"?>
<!-- Created with Inkscape (http://www.inkscape.org/) -->

<svg
   xmlns:dc="http://purl.org/dc/elements/1.1/"
   xmlns:cc="http://creativecommons.org/ns#"
   xmlns:rdf="http://www.w3.org/1999/02/22-rdf-syntax-ns#"
   xmlns:svg="http://www.w3.org/2000/svg"
   xmlns="http://www.w3.org/2000/svg"
   xmlns:sodipodi="http://sodipodi.sourceforge.net/DTD/sodipodi-0.dtd"
   xmlns:inkscape="http://www.inkscape.org/namespaces/inkscape"
   width="1920.0145"
   height="340.83203"
   viewBox="0 0 1920.0145 340.83203"
   id="svg2"
   version="1.1"
   inkscape:version="0.91 r13725"
   sodipodi:docname="jbrauer-logo.svg">
  <defs
     id="defs4" />
  <sodipodi:namedview
     id="base"
     pagecolor="#ffffff"
     bordercolor="#666666"
     borderopacity="1.0"
     inkscape:pageopacity="0.0"
     inkscape:pageshadow="2"
     inkscape:zoom="0.49497475"
     inkscape:cx="832.04707"
     inkscape:cy="50.865947"
     inkscape:document-units="px"
     inkscape:current-layer="text4164"
     showgrid="false"
     units="px"
     showborder="true"
     inkscape:showpageshadow="false"
     borderlayer="false"
     inkscape:window-width="1920"
     inkscape:window-height="1028"
     inkscape:window-x="-8"
     inkscape:window-y="22"
     inkscape:window-maximized="1"
     fit-margin-top="0"
     fit-margin-left="0"
     fit-margin-right="0"
     fit-margin-bottom="0" />
  <metadata
     id="metadata7">
    <rdf:RDF>
      <cc:Work
         rdf:about="">
        <dc:format>image/svg+xml</dc:format>
        <dc:type
           rdf:resource="http://purl.org/dc/dcmitype/StillImage" />
        <dc:title></dc:title>
      </cc:Work>
    </rdf:RDF>
  </metadata>
  <g
     inkscape:label="Layer 1"
     inkscape:groupmode="layer"
     id="layer1"
     transform="translate(0.01447537,-341.94614)">
    <flowRoot
       xml:space="preserve"
       id="flowRoot4136"
       style="font-style:normal;font-weight:normal;font-size:80px;line-height:125%;font-family:sans-serif;letter-spacing:0px;word-spacing:0px;fill:#000000;fill-opacity:1;stroke:none;stroke-width:1px;stroke-linecap:butt;stroke-linejoin:miter;stroke-opacity:1"
       transform="translate(0,-27.637839)"><flowRegion
         id="flowRegion4138"><rect
           id="rect4140"
           width="1854.64"
           height="820.2439"
           x="26.263966"
           y="35.50227"
           style="font-size:80px" /></flowRegion><flowPara
         id="flowPara4142" /></flowRoot>    <flowRoot
       xml:space="preserve"
       id="flowRoot4144"
       style="font-style:normal;font-weight:normal;font-size:240px;line-height:125%;font-family:sans-serif;letter-spacing:0px;word-spacing:0px;fill:#000000;fill-opacity:1;stroke:none;stroke-width:1px;stroke-linecap:butt;stroke-linejoin:miter;stroke-opacity:1"
       transform="translate(0,-27.637839)"><flowRegion
         id="flowRegion4146"><rect
           id="rect4148"
           width="1020.2541"
           height="656.59918"
           x="40.406101"
           y="71.86776" /></flowRegion><flowPara
         id="flowPara4150"></flowPara></flowRoot>    <text
       xml:space="preserve"
       style="font-style:normal;font-weight:normal;font-size:240px;line-height:125%;font-family:sans-serif;letter-spacing:0px;word-spacing:0px;fill:#000000;fill-opacity:1;stroke:none;stroke-width:1px;stroke-linecap:butt;stroke-linejoin:miter;stroke-opacity:1"
       x="416.18286"
       y="329.09293"
       id="text4152"
       sodipodi:linespacing="125%"><tspan
         sodipodi:role="line"
         id="tspan4154"
         x="416.18286"
         y="329.09293" /></text>
    <text
       xml:space="preserve"
       style="font-style:normal;font-variant:normal;font-weight:normal;font-stretch:normal;font-size:240px;line-height:125%;font-family:Consolas;-inkscape-font-specification:Consolas;letter-spacing:0px;word-spacing:0px;fill:#000000;fill-opacity:1;stroke:none;stroke-width:1px;stroke-linecap:butt;stroke-linejoin:miter;stroke-opacity:1"
       x="94.954338"
       y="217.97617"
       id="text4156"
       sodipodi:linespacing="125%"><tspan
         sodipodi:role="line"
         id="tspan4158"
         x="94.954338"
         y="217.97617" /></text>
    <text
       xml:space="preserve"
       style="font-style:normal;font-variant:normal;font-weight:normal;font-stretch:normal;font-size:240px;line-height:125%;font-family:Consolas;-inkscape-font-specification:Consolas;letter-spacing:0px;word-spacing:0px;fill:#000000;fill-opacity:1;stroke:none;stroke-width:1px;stroke-linecap:butt;stroke-linejoin:miter;stroke-opacity:1"
       x="414.16254"
       y="258.38226"
       id="text4160"
       sodipodi:linespacing="125%"><tspan
         sodipodi:role="line"
         id="tspan4162"
         x="414.16254"
         y="258.38226" /></text>
    <g
       style="font-style:normal;font-weight:normal;font-size:240px;line-height:125%;font-family:sans-serif;letter-spacing:0px;word-spacing:0px;fill:#000000;fill-opacity:1;stroke:none;stroke-width:1px;stroke-linecap:butt;stroke-linejoin:miter;stroke-opacity:1"
       id="text4164">
      <g
         id="g4221"
         transform="matrix(1.5235376,0,0,1.5235376,-502.60334,-268.24089)">
        <path
           id="path4201"
           style="font-style:normal;font-variant:normal;font-weight:normal;font-stretch:normal;font-family:Consolas;-inkscape-font-specification:Consolas"
           d="m 412.96875,457.34265 0,115.54688 q 0,12.30468 -3.51563,21.79687 -3.51562,9.60938 -10.07812,16.17188 -6.5625,6.5625 -16.17188,9.96093 -9.49218,3.39844 -21.44531,3.39844 -8.67187,0 -16.99219,-1.64062 -8.20312,-1.52344 -14.88281,-4.33594 l 0,-19.45313 q 3.63281,1.875 7.73438,3.39844 4.21875,1.52344 8.55468,2.57813 4.45313,1.05468 8.90625,1.52343 4.45313,0.58594 8.67188,0.58594 13.35937,0 20.97656,-8.4375 7.61719,-8.4375 7.61719,-24.84375 l 0,-99.375 -57.65625,0 0,-16.875 78.28125,0 z m -12.30469,-49.33594 q 3.39844,0 6.32813,1.28907 2.92968,1.17187 5.03906,3.39843 2.22656,2.22657 3.39844,5.15625 1.28906,2.92969 1.28906,6.21094 0,3.39844 -1.28906,6.32813 -1.17188,2.8125 -3.39844,5.03906 -2.10938,2.22656 -5.03906,3.51562 -2.92969,1.17188 -6.32813,1.17188 -3.39844,0 -6.32812,-1.17188 -2.92969,-1.28906 -5.15625,-3.51562 -2.10938,-2.22656 -3.39844,-5.03906 -1.17188,-2.92969 -1.17188,-6.32813 0,-3.28125 1.17188,-6.21094 1.28906,-2.92968 3.39844,-5.15625 2.22656,-2.22656 5.15625,-3.39843 2.92968,-1.28907 6.32812,-1.28907 z"
           inkscape:connector-curvature="0" />
        <path
           id="path4203"
           style="font-style:normal;font-variant:normal;font-weight:normal;font-stretch:normal;font-family:Consolas;-inkscape-font-specification:Consolas"
           d="M 535.89844,624.21765 Q 481.875,574.17859 481.875,513.59265 q 0,-14.17969 2.8125,-28.24219 2.92969,-14.17968 9.25781,-28.35937 6.44531,-14.17969 16.875,-28.35938 10.54688,-14.17968 25.54688,-28.125 l 11.83593,12.07032 q -45.46875,44.88281 -45.46875,99.49218 0,27.1875 11.48438,52.26563 11.48437,25.07812 33.98437,47.34375 l -12.30468,12.53906 z"
           inkscape:connector-curvature="0" />
        <path
           id="path4205"
           style="fill:#00bb99;fill-opacity:1"
           d="m 698.20312,514.0614 q 0,14.64844 -4.10156,26.25 -3.98437,11.48438 -11.48437,19.57031 -7.38282,7.96875 -18.04688,12.30469 -10.66406,4.21875 -24.02344,4.21875 -10.42968,0 -21.32812,-1.99219 -10.89844,-1.99218 -21.5625,-6.32812 l 0,-158.67188 20.39062,0 0,45.58594 -0.9375,21.79688 q 8.78907,-11.83594 18.75,-16.64063 10.07813,-4.92187 21.5625,-4.92187 10.07813,0 17.69532,4.21875 7.61718,4.21875 12.77343,11.95312 5.15625,7.61719 7.73438,18.51563 2.57812,10.78125 2.57812,24.14062 z m -20.85937,0.9375 q 0,-9.25781 -1.40625,-16.99219 -1.28906,-7.73437 -4.21875,-13.24218 -2.92969,-5.50782 -7.5,-8.55469 -4.57031,-3.16406 -10.89844,-3.16406 -3.86719,0 -7.85156,1.28906 -3.98438,1.17187 -8.32031,4.10156 -4.21875,2.8125 -9.02344,7.61719 -4.6875,4.6875 -10.07813,11.71875 l 0,57.07031 q 5.97657,2.34375 12.1875,3.75 6.21094,1.28906 11.83594,1.28906 7.03125,0 13.35938,-2.22656 6.44531,-2.22656 11.25,-7.38281 4.92187,-5.27344 7.73437,-13.82813 2.92969,-8.67187 2.92969,-21.44531 z"
           inkscape:connector-curvature="0" />
        <path
           id="path4207"
           style="fill:#00bb99;fill-opacity:1"
           d="m 734.64844,457.34265 18.63281,0 0.58594,21.67969 q 10.42968,-12.53906 20.50781,-18.16406 10.19531,-5.625 20.50781,-5.625 18.28125,0 27.65625,11.83593 9.49219,11.83594 8.78906,35.15625 l -20.625,0 q 0.35157,-15.46875 -4.57031,-22.38281 -4.80469,-7.03125 -14.17969,-7.03125 -4.10156,0 -8.32031,1.52344 -4.10156,1.40625 -8.55469,4.6875 -4.33593,3.16406 -9.25781,8.20312 -4.92187,5.03907 -10.54687,12.1875 l 0,75.58594 -20.625,0 0,-117.65625 z"
           inkscape:connector-curvature="0" />
        <path
           id="path4209"
           style="fill:#00bb99;fill-opacity:1"
           d="m 937.61719,574.9989 -0.46875,-15.82031 q -9.60938,9.49219 -19.57032,13.71094 -9.84375,4.21875 -20.74218,4.21875 -10.07813,0 -17.22657,-2.57813 -7.14843,-2.57812 -11.83593,-7.03125 -4.57032,-4.57031 -6.79688,-10.66406 -2.10937,-6.09375 -2.10937,-13.24219 0,-17.69531 13.125,-27.65625 13.24218,-10.07812 39.02343,-10.07812 l 24.375,0 0,-10.3125 q 0,-10.42969 -6.67968,-16.64063 -6.67969,-6.32812 -20.39063,-6.32812 -9.96094,0 -19.6875,2.22656 -9.60937,2.22656 -19.92187,6.32812 l 0,-18.39843 q 3.86718,-1.40625 8.55468,-2.69532 4.80469,-1.40625 10.07813,-2.46093 5.27344,-1.05469 11.01562,-1.64063 5.74219,-0.70312 11.60157,-0.70312 10.66406,0 19.21875,2.34375 8.55468,2.34375 14.41406,7.14843 5.97656,4.80469 9.14062,12.07032 3.16407,7.26562 3.16407,17.10937 l 0,81.09375 -18.28125,0 z m -2.22657,-53.55469 -25.89843,0 q -7.61719,0 -13.125,1.52344 -5.50782,1.52344 -9.02344,4.33594 -3.51563,2.8125 -5.27344,6.79687 -1.64062,3.86719 -1.64062,8.78907 0,3.39843 1.05468,6.5625 1.05469,3.04687 3.39844,5.50781 2.34375,2.34375 6.09375,3.75 3.75,1.40625 9.14063,1.40625 7.03125,0 16.05468,-4.21875 9.14063,-4.33594 19.21875,-13.59375 l 0,-20.85938 z"
           inkscape:connector-curvature="0" />
        <path
           id="path4211"
           style="fill:#00bb99;fill-opacity:1"
           d="m 1088.7891,574.9989 -18.2813,0 -0.7031,-18.98437 q -5.2734,6.09375 -10.0781,10.19531 -4.6875,3.98437 -9.375,6.44531 -4.6875,2.46094 -9.4922,3.39844 -4.6875,1.05469 -9.961,1.05469 -18.164,0 -27.4218,-10.66407 -9.25785,-10.66406 -9.25785,-32.22656 l 0,-76.875 20.39065,0 0,75.23438 q 0,27.07031 20.3906,27.07031 3.75,0 7.2656,-1.05469 3.6328,-1.17187 7.5,-3.86719 3.9844,-2.8125 8.4375,-7.5 4.5703,-4.6875 10.1953,-11.83593 l 0,-78.04688 20.3907,0 0,117.65625 z"
           inkscape:connector-curvature="0" />
        <path
           id="path4213"
           style="fill:#00bb99;fill-opacity:1"
           d="m 1225.7813,509.95984 q 0,4.33594 -0.1172,7.26562 -0.1172,2.92969 -0.3516,5.50782 l -82.6172,0 q 0,18.04687 10.0781,27.77343 10.0782,9.60938 29.0625,9.60938 5.1563,0 10.3125,-0.35156 5.1563,-0.46875 9.961,-1.17188 4.8047,-0.70312 9.1406,-1.52344 4.4531,-0.9375 8.2031,-1.99218 l 0,16.75781 q -8.3203,2.34375 -18.8672,3.75 -10.4296,1.52344 -21.6796,1.52344 -15.1172,0 -26.0157,-4.10157 -10.8984,-4.10156 -17.9297,-11.83593 -6.914,-7.85157 -10.3125,-19.10157 -3.2812,-11.36718 -3.2812,-25.66406 0,-12.42187 3.5156,-23.4375 3.6328,-11.13281 10.4297,-19.45312 6.9141,-8.4375 16.875,-13.35938 9.9609,-4.92187 22.6172,-4.92187 12.3047,0 21.7969,3.86718 9.4922,3.86719 15.9375,11.01563 6.5625,7.03125 9.8437,17.22656 3.3985,10.07813 3.3985,22.61719 z m -21.211,-2.92969 q 0.3516,-7.85156 -1.5234,-14.29687 -1.875,-6.5625 -5.8594,-11.25 -3.8672,-4.6875 -9.7266,-7.26563 -5.8593,-2.69531 -13.5937,-2.69531 -6.6797,0 -12.1875,2.57812 -5.5078,2.57813 -9.4922,7.26563 -3.9844,4.6875 -6.4453,11.25 -2.4609,6.5625 -3.0469,14.41406 l 61.875,0 z"
           inkscape:connector-curvature="0" />
        <path
           id="path4215"
           style="fill:#00bb99;fill-opacity:1"
           d="m 1263.3984,457.34265 18.6329,0 0.5859,21.67969 q 10.4297,-12.53906 20.5078,-18.16406 10.1953,-5.625 20.5078,-5.625 18.2813,0 27.6563,11.83593 9.4922,11.83594 8.789,35.15625 l -20.625,0 q 0.3516,-15.46875 -4.5703,-22.38281 -4.8047,-7.03125 -14.1797,-7.03125 -4.1015,0 -8.3203,1.52344 -4.1015,1.40625 -8.5547,4.6875 -4.3359,3.16406 -9.2578,8.20312 -4.9219,5.03907 -10.5469,12.1875 l 0,75.58594 -20.625,0 0,-117.65625 z"
           inkscape:connector-curvature="0" />
        <path
           id="path4217"
           style="font-style:normal;font-variant:normal;font-weight:normal;font-stretch:normal;font-family:Consolas;-inkscape-font-specification:Consolas"
           d="m 1414.8047,400.50671 q 54.0234,50.03907 54.0234,111.32813 0,12.65625 -2.5781,26.25 -2.5781,13.59375 -8.7891,27.89062 -6.2109,14.17969 -16.7578,28.82813 -10.4297,14.64844 -26.3672,29.41406 L 1402.5,612.14734 q 22.8516,-22.61719 34.1016,-47.22656 11.25,-24.60938 11.25,-51.5625 0,-55.78125 -45.3516,-100.3125 l 12.3047,-12.53907 z"
           inkscape:connector-curvature="0" />
        <path
           id="path4219"
           style="font-style:normal;font-variant:normal;font-weight:normal;font-stretch:normal;font-family:Consolas;-inkscape-font-specification:Consolas"
           d="m 1533.5156,599.02234 q 5.9766,0.23437 11.6016,-1.05469 5.625,-1.28906 9.8437,-3.86719 4.336,-2.46093 6.9141,-6.21093 2.5781,-3.75 2.5781,-8.55469 0,-4.92188 -1.7578,-7.96875 -1.6406,-3.04688 -3.75,-5.625 -2.1094,-2.57813 -3.8672,-5.50781 -1.6406,-2.92969 -1.6406,-7.85157 0,-2.46093 0.9375,-5.15625 0.9375,-2.69531 2.8125,-4.92187 1.9922,-2.22656 4.9219,-3.63281 3.0469,-1.40625 7.1484,-1.40625 4.1016,0 7.8516,1.75781 3.8672,1.64062 6.6797,5.15625 2.9297,3.51562 4.5703,8.78906 1.7578,5.27344 1.7578,12.42188 0,9.72656 -3.6328,18.63281 -3.5156,9.02344 -10.6641,15.9375 -7.0312,6.91406 -17.6953,11.01562 -10.5469,4.10157 -24.6094,4.10157 l 0,-16.05469 z m 36.6797,-143.78906 q 3.6328,0 6.9141,1.52343 3.2812,1.40625 5.7422,3.86719 2.4609,2.46094 3.8672,5.74219 1.5234,3.28125 1.5234,6.91406 0,3.75 -1.5234,7.03125 -1.4063,3.16406 -3.8672,5.625 -2.461,2.46094 -5.7422,3.86719 -3.2813,1.40625 -6.9141,1.40625 -3.75,0 -7.0312,-1.40625 -3.1641,-1.40625 -5.625,-3.86719 -2.461,-2.46094 -3.8672,-5.625 -1.4063,-3.28125 -1.4063,-7.03125 0,-3.63281 1.4063,-6.91406 1.4062,-3.28125 3.8672,-5.74219 2.4609,-2.46094 5.625,-3.86719 3.2812,-1.52343 7.0312,-1.52343 z"
           inkscape:connector-curvature="0" />
      </g>
    </g>
  </g>
</svg>
