<?xml version="1.0" encoding="UTF-8" standalone="no"?>
<!-- Created with Inkscape (http://www.inkscape.org/) -->

<svg
   xmlns:dc="http://purl.org/dc/elements/1.1/"
   xmlns:cc="http://creativecommons.org/ns#"
   xmlns:rdf="http://www.w3.org/1999/02/22-rdf-syntax-ns#"
   xmlns:svg="http://www.w3.org/2000/svg"
   xmlns="http://www.w3.org/2000/svg"
   xmlns:sodipodi="http://sodipodi.sourceforge.net/DTD/sodipodi-0.dtd"
   xmlns:inkscape="http://www.inkscape.org/namespaces/inkscape"
   width="914.11401"
   height="341.22873"
   viewBox="0 0 914.114 341.22873"
   id="svg2"
   version="1.1"
   inkscape:version="0.91 r13725"
   sodipodi:docname="jbrauer-alt-logo.svg">
  <defs
     id="defs4" />
  <sodipodi:namedview
     id="base"
     pagecolor="#ffffff"
     bordercolor="#666666"
     borderopacity="1.0"
     inkscape:pageopacity="0.0"
     inkscape:pageshadow="2"
     inkscape:zoom="0.7"
     inkscape:cx="664.89575"
     inkscape:cy="117.36394"
     inkscape:document-units="px"
     inkscape:current-layer="text4164"
     showgrid="false"
     units="px"
     showborder="true"
     inkscape:showpageshadow="false"
     borderlayer="false"
     inkscape:window-width="1920"
     inkscape:window-height="1028"
     inkscape:window-x="-8"
     inkscape:window-y="22"
     inkscape:window-maximized="1"
     fit-margin-top="0"
     fit-margin-left="0"
     fit-margin-right="0"
     fit-margin-bottom="0" />
  <metadata
     id="metadata7">
    <rdf:RDF>
      <cc:Work
         rdf:about="">
        <dc:format>image/svg+xml</dc:format>
        <dc:type
           rdf:resource="http://purl.org/dc/dcmitype/StillImage" />
        <dc:title></dc:title>
      </cc:Work>
    </rdf:RDF>
  </metadata>
  <g
     inkscape:label="Layer 1"
     inkscape:groupmode="layer"
     id="layer1"
     transform="translate(0.01446816,-341.94614)">
    <flowRoot
       xml:space="preserve"
       id="flowRoot4136"
       style="font-style:normal;font-weight:normal;font-size:80px;line-height:125%;font-family:sans-serif;letter-spacing:0px;word-spacing:0px;fill:#000000;fill-opacity:1;stroke:none;stroke-width:1px;stroke-linecap:butt;stroke-linejoin:miter;stroke-opacity:1"
       transform="translate(0,-27.637839)"><flowRegion
         id="flowRegion4138"><rect
           id="rect4140"
           width="1854.64"
           height="820.2439"
           x="26.263966"
           y="35.50227"
           style="font-size:80px" /></flowRegion><flowPara
         id="flowPara4142" /></flowRoot>    <flowRoot
       xml:space="preserve"
       id="flowRoot4144"
       style="font-style:normal;font-weight:normal;font-size:240px;line-height:125%;font-family:sans-serif;letter-spacing:0px;word-spacing:0px;fill:#000000;fill-opacity:1;stroke:none;stroke-width:1px;stroke-linecap:butt;stroke-linejoin:miter;stroke-opacity:1"
       transform="translate(0,-27.637839)"><flowRegion
         id="flowRegion4146"><rect
           id="rect4148"
           width="1020.2541"
           height="656.59918"
           x="40.406101"
           y="71.86776" /></flowRegion><flowPara
         id="flowPara4150" /></flowRoot>    <text
       xml:space="preserve"
       style="font-style:normal;font-weight:normal;font-size:240px;line-height:125%;font-family:sans-serif;letter-spacing:0px;word-spacing:0px;fill:#000000;fill-opacity:1;stroke:none;stroke-width:1px;stroke-linecap:butt;stroke-linejoin:miter;stroke-opacity:1"
       x="416.18286"
       y="329.09293"
       id="text4152"
       sodipodi:linespacing="125%"><tspan
         sodipodi:role="line"
         id="tspan4154"
         x="416.18286"
         y="329.09293" /></text>
    <text
       xml:space="preserve"
       style="font-style:normal;font-variant:normal;font-weight:normal;font-stretch:normal;font-size:240px;line-height:125%;font-family:Consolas;-inkscape-font-specification:Consolas;letter-spacing:0px;word-spacing:0px;fill:#000000;fill-opacity:1;stroke:none;stroke-width:1px;stroke-linecap:butt;stroke-linejoin:miter;stroke-opacity:1"
       x="94.954338"
       y="217.97617"
       id="text4156"
       sodipodi:linespacing="125%"><tspan
         sodipodi:role="line"
         id="tspan4158"
         x="94.954338"
         y="217.97617" /></text>
    <text
       xml:space="preserve"
       style="font-style:normal;font-variant:normal;font-weight:normal;font-stretch:normal;font-size:240px;line-height:125%;font-family:Consolas;-inkscape-font-specification:Consolas;letter-spacing:0px;word-spacing:0px;fill:#000000;fill-opacity:1;stroke:none;stroke-width:1px;stroke-linecap:butt;stroke-linejoin:miter;stroke-opacity:1"
       x="414.16254"
       y="258.38226"
       id="text4160"
       sodipodi:linespacing="125%"><tspan
         sodipodi:role="line"
         id="tspan4162"
         x="414.16254"
         y="258.38226" /></text>
    <g
       style="font-style:normal;font-weight:normal;font-size:240px;line-height:125%;font-family:sans-serif;letter-spacing:0px;word-spacing:0px;fill:#000000;fill-opacity:1;stroke:none;stroke-width:1px;stroke-linecap:butt;stroke-linejoin:miter;stroke-opacity:1"
       id="text4164">
      <g
         style="font-style:normal;font-weight:normal;font-size:245px;line-height:125%;font-family:sans-serif;letter-spacing:0px;word-spacing:0px;fill:#000000;fill-opacity:1;stroke:none;stroke-width:1px;stroke-linecap:butt;stroke-linejoin:miter;stroke-opacity:1"
         id="text4159"
         transform="matrix(1.4941821,0,0,1.4941821,-977.36149,-253.00189)">
        <path
           d="m 738.91858,456.19641 0,117.9541 q 0,12.56104 -3.58887,22.25098 -3.58887,9.80957 -10.28808,16.50879 -6.69922,6.69922 -16.50879,10.16846 -9.68994,3.46923 -21.89209,3.46923 -8.85254,0 -17.34619,-1.6748 -8.37403,-1.55518 -15.19288,-4.42627 l 0,-19.8584 q 3.7085,1.91406 7.89551,3.46924 4.30664,1.55518 8.73291,2.63184 4.5459,1.07666 9.0918,1.55517 4.5459,0.59815 8.85254,0.59815 13.63769,0 21.41357,-8.61329 7.77588,-8.61328 7.77588,-25.36132 l 0,-101.44532 -58.85742,0 0,-17.22656 79.91211,0 z m -12.56104,-50.36377 q 3.46924,0 6.45996,1.31592 2.99073,1.19629 5.14405,3.46924 2.27295,2.27295 3.46924,5.26367 1.31591,2.99072 1.31591,6.34033 0,3.46924 -1.31591,6.45996 -1.19629,2.8711 -3.46924,5.14405 -2.15332,2.27294 -5.14405,3.58886 -2.99072,1.19629 -6.45996,1.19629 -3.46923,0 -6.45996,-1.19629 -2.99072,-1.31592 -5.26367,-3.58886 -2.15332,-2.27295 -3.46924,-5.14405 -1.19629,-2.99072 -1.19629,-6.45996 0,-3.34961 1.19629,-6.34033 1.31592,-2.99072 3.46924,-5.26367 2.27295,-2.27295 5.26367,-3.46924 2.99073,-1.31592 6.45996,-1.31592 z"
           style="font-style:normal;font-variant:normal;font-weight:normal;font-stretch:normal;font-family:Consolas;-inkscape-font-specification:Consolas"
           id="path4178"
           inkscape:connector-curvature="0" />
        <path
           d="m 864.4093,626.54797 q -55.14892,-51.08154 -55.14892,-112.92968 0,-14.4751 2.87109,-28.83057 2.99072,-14.4751 9.45068,-28.9502 6.57959,-14.47509 17.22657,-28.95019 10.7666,-14.4751 26.0791,-28.71094 l 12.08252,12.32178 q -46.41602,45.81787 -46.41602,101.56494 0,27.75391 11.72363,53.35449 11.72364,25.60059 34.69239,48.33008 l -12.56104,12.80029 z"
           style="font-style:normal;font-variant:normal;font-weight:normal;font-stretch:normal;font-family:Consolas;-inkscape-font-specification:Consolas"
           id="path4180"
           inkscape:connector-curvature="0" />
        <path
           d="m 1030.0953,514.0968 q 0,14.95362 -4.187,26.79688 -4.0674,11.72363 -11.7236,19.97802 -7.5366,8.13477 -18.42286,12.56104 -10.88623,4.30664 -24.52392,4.30664 -10.64698,0 -21.77247,-2.03369 -11.12548,-2.03369 -22.01171,-6.45996 l 0,-161.97754 20.81543,0 0,46.53564 -0.95704,22.25098 q 8.97217,-12.08252 19.14063,-16.98731 10.28808,-5.02441 22.01172,-5.02441 10.28808,0 18.06392,4.30664 7.7759,4.30664 13.0396,12.20215 5.2637,7.77588 7.8955,18.90137 2.6318,11.00586 2.6318,24.64355 z m -21.2939,0.95703 q 0,-9.45068 -1.4356,-17.34619 -1.3159,-7.89551 -4.3066,-13.51806 -2.9907,-5.62256 -7.65625,-8.73291 -4.66552,-3.22999 -11.12548,-3.22999 -3.94776,0 -8.01514,1.31592 -4.06738,1.19629 -8.49365,4.18701 -4.30664,2.8711 -9.21143,7.77588 -4.78516,4.78516 -10.28808,11.96289 l 0,58.25928 q 6.10107,2.39258 12.4414,3.82813 6.34033,1.31591 12.08252,1.31591 7.17774,0 13.6377,-2.27295 6.57959,-2.27294 11.48437,-7.53662 5.02444,-5.3833 7.89554,-14.11621 2.9907,-8.85254 2.9907,-21.89209 z"
           style="fill:#00bb99;fill-opacity:1"
           id="path4182"
           inkscape:connector-curvature="0" />
        <path
           d="m 1086.9191,398.17639 q 55.1489,51.08154 55.1489,113.64746 0,12.91992 -2.6318,26.79688 -2.6319,13.87695 -8.9722,28.47168 -6.3403,14.47509 -17.1069,29.42871 -10.647,14.95361 -26.9165,30.02685 L 1074.358,614.2262 q 23.3277,-23.08838 34.812,-48.21045 11.4844,-25.12207 11.4844,-52.63672 0,-56.94336 -46.2964,-102.40235 l 12.5611,-12.80029 z"
           style="font-style:normal;font-variant:normal;font-weight:normal;font-stretch:normal;font-family:Consolas;-inkscape-font-specification:Consolas"
           id="path4184"
           inkscape:connector-curvature="0" />
        <path
           d="m 1208.1031,600.82776 q 6.1011,0.23926 11.8433,-1.07666 5.7422,-1.31592 10.0488,-3.94776 4.4263,-2.5122 7.0581,-6.34033 2.6319,-3.82812 2.6319,-8.73291 0,-5.02441 -1.7945,-8.13476 -1.6748,-3.11035 -3.8281,-5.74219 -2.1533,-2.63184 -3.9477,-5.62256 -1.6748,-2.99072 -1.6748,-8.01514 0,-2.5122 0.957,-5.26367 0.957,-2.75146 2.8711,-5.02441 2.0337,-2.27295 5.0244,-3.7085 3.1104,-1.43554 7.2974,-1.43554 4.187,0 8.0151,1.79443 3.9478,1.6748 6.8189,5.26367 2.9907,3.58887 4.6655,8.97217 1.7944,5.3833 1.7944,12.68066 0,9.9292 -3.7085,19.021 -3.5889,9.21142 -10.8862,16.26953 -7.1777,7.05811 -18.064,11.24512 -10.7666,4.18701 -25.1221,4.18701 l 0,-16.38916 z m 37.4439,-146.78467 q 3.7085,0 7.0581,1.55518 3.3496,1.43554 5.8618,3.94775 2.5122,2.51221 3.9478,5.86182 1.5551,3.34961 1.5551,7.0581 0,3.82813 -1.5551,7.17774 -1.4356,3.22998 -3.9478,5.74218 -2.5122,2.51221 -5.8618,3.94776 -3.3496,1.43555 -7.0581,1.43555 -3.8281,0 -7.1777,-1.43555 -3.23,-1.43555 -5.7422,-3.94776 -2.5122,-2.5122 -3.9478,-5.74218 -1.4355,-3.34961 -1.4355,-7.17774 0,-3.70849 1.4355,-7.0581 1.4356,-3.34961 3.9478,-5.86182 2.5122,-2.51221 5.7422,-3.94775 3.3496,-1.55518 7.1777,-1.55518 z"
           style="font-style:normal;font-variant:normal;font-weight:normal;font-stretch:normal;font-family:Consolas;-inkscape-font-specification:Consolas"
           id="path4186"
           inkscape:connector-curvature="0" />
      </g>
    </g>
  </g>
</svg>
